# xmcd CD database file
#
# Track frame offsets:
#	150
#	18975
#	31275
#	49800
#	64725
#	81150
#	98400
#	112425
#	126600
#	139050
#	153600
#	168900
#	179250
#	195975
#	211575
#	228150
#
# Disc length: 3233 seconds
#
# Revision: 0
# Processed by: cddbd v1.5.1PL2 Copyright (c) Steve Scherf et al.
# Submitted via: CDex 1.51
#
DISCID=d40c9f10
DTITLE=Salty Dog - Slap That Thing
DYEAR=2001
DGENRE=Blues
TTITLE0=Preachin' Blues
TTITLE1=Slap That Thing
TTITLE2=Cypress Grove
TTITLE3=Got A Bad Feelin'
TTITLE4=Black Mattie
TTITLE5=Boogie Woogie Country Girl
TTITLE6=Deep River Blues
TTITLE7=He's My Daddy
TTITLE8=Mandolin Boogie
TTITLE9=Parchment Farm
TTITLE10=Mama Taint Long Fo Day
TTITLE11=Kansas City Blues
TTITLE12=Crossroads
TTITLE13=Hello Little Boy
TTITLE14=Kind Hearted Man
TTITLE15=Georgia Crawl
EXTD=YEAR: 2001
EXTT0=
EXTT1=
EXTT2=
EXTT3=
EXTT4=
EXTT5=
EXTT6=
EXTT7=
EXTT8=
EXTT9=
EXTT10=
EXTT11=
EXTT12=
EXTT13=
EXTT14=
EXTT15=
PLAYORDER=
